# xmcd CD database file
#
# Track frame offsets:
#	150
#	21268
#	36095
#	48119
#	63082
#	63773
#	82176
#	99870
#
# Disc length: 1450 seconds
#
# Revision: 0
# Processed by: cddbd v1.5.2PL0 Copyright (c) Steve Scherf et al.
# Submitted via: CDex 1.70beta2
#
DISCID=5805a808
DTITLE=Silver Forest - 東方悠幻奏
DYEAR=2008
DGENRE=東方アレンジ
TTITLE0=Sacred
TTITLE1=60's wind - stars
TTITLE2=EXTRA BITTER ～ みょんのうた
TTITLE3=starting over
TTITLE4=反魂蝶
TTITLE5=色は匂へど散りぬるを
TTITLE6=seventh soul
TTITLE7=魔法少女達の百年祭
EXTD=YEAR: 2008
EXTT0=
EXTT1=
EXTT2=
EXTT3=
EXTT4=
EXTT5=
EXTT6=
EXTT7=
PLAYORDER=
